<?xml version="1.0" encoding="UTF-8" standalone="no"?>
<!-- Created with Inkscape (http://www.inkscape.org/) -->

<svg
   xmlns:dc="http://purl.org/dc/elements/1.1/"
   xmlns:cc="http://creativecommons.org/ns#"
   xmlns:rdf="http://www.w3.org/1999/02/22-rdf-syntax-ns#"
   xmlns:svg="http://www.w3.org/2000/svg"
   xmlns="http://www.w3.org/2000/svg"
   xmlns:sodipodi="http://sodipodi.sourceforge.net/DTD/sodipodi-0.dtd"
   xmlns:inkscape="http://www.inkscape.org/namespaces/inkscape"
   version="1.1"
   id="svg23333"
   xml:space="preserve"
   width="800"
   height="800"
   viewBox="0 0 800 800"
   sodipodi:docname="stock-vector-graphics-5-publicdomainvectors.org.svg"
   inkscape:version="0.92.4 (5da689c313, 2019-01-14)"><metadata
     id="metadata23339"><rdf:RDF><cc:Work
         rdf:about=""><dc:format>image/svg+xml</dc:format><dc:type
           rdf:resource="http://purl.org/dc/dcmitype/StillImage" /><dc:title></dc:title></cc:Work></rdf:RDF></metadata><defs
     id="defs23337"><clipPath
       clipPathUnits="userSpaceOnUse"
       id="clipPath23349"><path
         d="M 0,600 H 600 V 0 H 0 Z"
         id="path23347"
         inkscape:connector-curvature="0" /></clipPath><clipPath
       clipPathUnits="userSpaceOnUse"
       id="clipPath23357"><path
         d="M 0.0883789,600.058 H 600 V -0.719727 H 0.0883789 Z"
         id="path23355"
         inkscape:connector-curvature="0" /></clipPath></defs><sodipodi:namedview
     pagecolor="#ffffff"
     bordercolor="#666666"
     borderopacity="1"
     objecttolerance="10"
     gridtolerance="10"
     guidetolerance="10"
     inkscape:pageopacity="0"
     inkscape:pageshadow="2"
     inkscape:window-width="1920"
     inkscape:window-height="1018"
     id="namedview23335"
     showgrid="false"
     inkscape:zoom="0.79007886"
     inkscape:cx="440.67797"
     inkscape:cy="466.10169"
     inkscape:window-x="-8"
     inkscape:window-y="-8"
     inkscape:window-maximized="1"
     inkscape:current-layer="g23341" /><g
     id="g23341"
     inkscape:groupmode="layer"
     inkscape:label="stock-vector-graphics-5-publicdomainvectors.org"
     transform="matrix(1.3333333,0,0,-1.3333333,0,800)"><g
       id="g23343"><g
         id="g23345"
         clip-path="url(#clipPath23349)"><g
           id="g23351"><g
             id="g23353" /><g
             id="g23379"><g
               clip-path="url(#clipPath23357)"
               id="g23377"><path
                 d="m 600,181.052 c -66.6,-0.026 -133.044,-0.073 -200.713,0.052 0.122,-61.296 0.056,-121.495 0.014,-181.824 h 49.875 c 0.033,45.244 0.081,90.366 0.046,136.236 50.769,-0.04 100.698,-0.007 150.778,0.012 z"
                 style="fill:#918448;fill-opacity:1;fill-rule:nonzero;stroke:none"
                 id="path23359"
                 inkscape:connector-curvature="0" /><path
                 d="m 0.088,600.055 v -91.774 c 16.852,-0.001 25.69,-0.003 25.69,-0.003 5.152,-0.025 10.199,-0.035 15.181,-0.038 -0.001,4.548 -0.012,9.153 -0.038,13.856 0,0 0.004,27.567 0.011,77.962 z"
                 style="fill:#918448;fill-opacity:1;fill-rule:nonzero;stroke:none"
                 id="path23361"
                 inkscape:connector-curvature="0" /><path
                 d="m 600,226.574 c -83.354,-0.028 -166.626,-0.089 -250.708,0.172 0.267,-76.285 0.186,-151.842 0.135,-227.466 h 49.874 c 0.042,60.329 0.108,120.528 -0.014,181.824 67.669,-0.125 134.113,-0.078 200.713,-0.052 z"
                 style="fill:#ed781f;fill-opacity:1;fill-rule:nonzero;stroke:none"
                 id="path23363"
                 inkscape:connector-curvature="0" /><path
                 d="m 40.932,600.055 c -0.007,-50.393 -0.011,-77.959 -0.011,-77.959 0.026,-4.703 0.037,-9.308 0.038,-13.856 -4.982,0.003 -10.029,0.013 -15.181,0.038 0,0 -8.838,0.002 -25.69,0.003 v -45.525 c 16.473,-0.002 25.687,-0.003 25.687,-0.003 21.931,-0.104 43.193,0.065 64.989,0.018 -0.048,19.894 0.141,39.302 0.034,59.319 0,0 0.003,29.999 0.008,77.968 z"
                 style="fill:#ed781f;fill-opacity:1;fill-rule:nonzero;stroke:none"
                 id="path23365"
                 inkscape:connector-curvature="0" /><path
                 d="m 600,272.096 c -95.599,-0.031 -191.303,-0.099 -285.75,0.288 -5.378,0.105 -10.744,0.451 -16.077,1.033 0.636,-4.869 1.015,-9.765 1.127,-14.674 0.401,-85.762 0.307,-172.657 0.253,-259.463 h 49.874 c 0.051,75.624 0.132,151.181 -0.135,227.466 84.082,-0.261 167.354,-0.2 250.708,-0.172 z"
                 style="fill:#e0077c;fill-opacity:1;fill-rule:nonzero;stroke:none"
                 id="path23367"
                 inkscape:connector-curvature="0" /><path
                 d="m 90.806,600.058 c -0.005,-47.969 -0.008,-77.968 -0.008,-77.968 0.107,-20.017 -0.082,-39.425 -0.034,-59.319 -21.796,0.047 -43.058,-0.122 -64.989,-0.018 0,0 -9.214,0.001 -25.687,0.003 v -45.521 c 16.47,-0.002 25.682,-0.003 25.682,-0.003 33.669,-0.149 69.03,0.312 101.312,-0.332 5.049,-0.171 10.093,-0.533 15.112,-1.083 -0.601,4.582 -0.996,9.188 -1.184,13.795 -0.697,29.466 -0.183,61.74 -0.34,92.471 0,0 0.004,30.002 0.01,77.975 z"
                 style="fill:#e0077c;fill-opacity:1;fill-rule:nonzero;stroke:none"
                 id="path23369"
                 inkscape:connector-curvature="0" /><path
                 d="m 140.68,600.058 c -0.006,-50.403 -0.01,-77.975 -0.01,-77.975 0.157,-30.731 -0.357,-63.005 0.34,-92.471 0.188,-4.607 0.583,-9.213 1.184,-13.795 -5.019,0.55 -10.063,0.912 -15.112,1.083 -32.282,0.644 -67.643,0.183 -101.312,0.332 0,0 -9.212,10e-4 -25.682,0.003 v -45.526 c 16.465,-10e-4 25.675,-0.002 25.675,-0.002 32.881,-0.132 70.794,0.285 99.548,-0.302 21.487,-0.77 42.658,-6.052 61.069,-16.519 37.711,-19.951 62.204,-58.411 63.07,-97.477 0.369,-83.883 0.282,-171.14 0.231,-258.129 h 49.872 c 0.054,86.806 0.148,173.701 -0.253,259.463 -0.112,4.909 -0.491,9.805 -1.127,14.674 5.333,-0.582 10.699,-0.928 16.077,-1.033 94.447,-0.387 190.151,-0.319 285.75,-0.288 v 45.522 c -95.793,-0.027 -191.904,-0.09 -284.278,0.267 -42.798,0.798 -84.933,23.164 -106.78,57.588 -11.464,16.807 -17.248,36.132 -18.087,55.746 -0.635,26.242 -0.171,60.849 -0.307,90.861 0,0 0.005,27.572 0.011,77.978 z"
                 style="fill:#7e87cb;fill-opacity:1;fill-rule:nonzero;stroke:none"
                 id="path23371"
                 inkscape:connector-curvature="0" /><path
                 d="m 190.559,600.055 c -0.006,-50.403 -0.011,-77.975 -0.011,-77.975 0.136,-30.012 -0.328,-64.619 0.307,-90.861 0.839,-19.614 6.623,-38.939 18.087,-55.746 21.847,-34.424 63.982,-56.79 106.78,-57.588 92.374,-0.357 188.485,-0.294 284.278,-0.267 v 45.523 c -95.986,-0.023 -192.505,-0.081 -282.806,0.248 -25.82,0.431 -51.976,14.04 -65.471,35.486 -7.18,10.333 -10.452,21.952 -11.023,33.953 -0.575,23.017 -0.155,59.956 -0.276,89.247 0,0 0.004,30.006 0.008,77.983 z"
                 style="fill:#a31659;fill-opacity:1;fill-rule:nonzero;stroke:none"
                 id="path23373"
                 inkscape:connector-curvature="0" /><path
                 d="m 249.681,-0.72 c 0.051,86.989 0.138,174.246 -0.231,258.129 -0.866,39.066 -25.359,77.526 -63.07,97.477 -18.411,10.467 -39.582,15.749 -61.069,16.519 -28.754,0.587 -66.667,0.17 -99.548,0.302 0,0 -9.21,0.001 -25.675,0.002 v -45.522 c 16.46,-0.003 25.667,-0.004 25.667,-0.004 32.094,-0.119 72.56,0.258 97.782,-0.273 13.148,-0.524 25.878,-3.513 37.197,-10.067 23.49,-12.324 38.396,-36.2 38.862,-59.768 0.34,-82.004 0.258,-169.624 0.211,-256.795 z"
                 style="fill:#a31659;fill-opacity:1;fill-rule:nonzero;stroke:none"
                 id="path23375"
                 inkscape:connector-curvature="0" /></g></g></g></g></g></g></svg>