<?xml version="1.0" encoding="iso-8859-1"?>
<!-- Generator: Adobe Illustrator 19.0.0, SVG Export Plug-In . SVG Version: 6.00 Build 0)  -->
<svg version="1.1" id="Layer_1" xmlns="http://www.w3.org/2000/svg" xmlns:xlink="http://www.w3.org/1999/xlink" x="0px" y="0px"
	 viewBox="0 0 511.448 511.448" style="enable-background:new 0 0 511.448 511.448;" xml:space="preserve">
<g>
	<path style="fill:#FFFFFF;" d="M397.67,228.66v247.991c0,10.052-8.174,18.227-18.227,18.227H132.004
		c-10.052,0-18.227-8.174-18.227-18.227V228.66H397.67z M378.891,352.932v-61.86c0-4.573-3.712-8.285-8.285-8.285h-53.023
		c-4.573,0-8.285,3.712-8.285,8.285v61.86c0,4.573,3.712,8.285,8.285,8.285h53.023C375.179,361.217,378.891,357.505,378.891,352.932
		z M378.891,388.28c0-4.573-3.712-8.285-8.285-8.285h-53.023c-4.573,0-8.285,3.712-8.285,8.285s3.712,8.285,8.285,8.285h53.023
		C375.179,396.565,378.891,392.854,378.891,388.28z M370.054,423.629c0-4.573-3.712-8.285-8.285-8.285h-44.186
		c-4.573,0-8.285,3.712-8.285,8.285c0,4.573,3.712,8.285,8.285,8.285h44.186C366.342,431.914,370.054,428.202,370.054,423.629z
		 M370.054,458.977c0-4.573-3.712-8.285-8.285-8.285h-44.186c-4.573,0-8.285,3.712-8.285,8.285s3.712,8.285,8.285,8.285h44.186
		C366.342,467.262,370.054,463.551,370.054,458.977z M334.705,255.724c0-4.573-3.712-8.285-8.285-8.285H185.027
		c-4.573,0-8.285,3.712-8.285,8.285s3.712,8.285,8.285,8.285h141.394C330.994,264.009,334.705,260.297,334.705,255.724z
		 M290.52,352.932v-61.86c0-4.573-3.712-8.285-8.285-8.285h-53.023c-4.573,0-8.285,3.712-8.285,8.285v61.86
		c0,4.573,3.712,8.285,8.285,8.285h53.023C286.808,361.217,290.52,357.505,290.52,352.932z M290.52,388.28
		c0-4.573-3.712-8.285-8.285-8.285h-53.023c-4.573,0-8.285,3.712-8.285,8.285s3.712,8.285,8.285,8.285h53.023
		C286.808,396.565,290.52,392.854,290.52,388.28z M290.52,423.629c0-4.573-3.712-8.285-8.285-8.285h-8.837
		c-4.573,0-8.285,3.712-8.285,8.285c0,4.573,3.712,8.285,8.285,8.285h8.837C286.808,431.914,290.52,428.202,290.52,423.629z
		 M290.52,458.977c0-4.573-3.712-8.285-8.285-8.285h-8.837c-4.573,0-8.285,3.712-8.285,8.285s3.712,8.285,8.285,8.285h8.837
		C286.808,467.262,290.52,463.551,290.52,458.977z M246.334,423.629c0-4.573-3.712-8.285-8.285-8.285h-44.186
		c-4.573,0-8.285,3.712-8.285,8.285c0,4.573,3.712,8.285,8.285,8.285h44.186C242.623,431.914,246.334,428.202,246.334,423.629z
		 M246.334,458.977c0-4.573-3.712-8.285-8.285-8.285h-44.186c-4.573,0-8.285,3.712-8.285,8.285s3.712,8.285,8.285,8.285h44.186
		C242.623,467.262,246.334,463.551,246.334,458.977z M202.149,352.932v-61.86c0-4.573-3.712-8.285-8.285-8.285h-53.023
		c-4.573,0-8.285,3.712-8.285,8.285v61.86c0,4.573,3.712,8.285,8.285,8.285h53.023C198.437,361.217,202.149,357.505,202.149,352.932
		z M202.149,388.28c0-4.573-3.712-8.285-8.285-8.285h-53.023c-4.573,0-8.285,3.712-8.285,8.285s3.712,8.285,8.285,8.285h53.023
		C198.437,396.565,202.149,392.854,202.149,388.28z M166.8,423.629c0-4.573-3.712-8.285-8.285-8.285h-8.837
		c-4.573,0-8.285,3.712-8.285,8.285c0,4.573,3.712,8.285,8.285,8.285h8.837C163.089,431.914,166.8,428.202,166.8,423.629z
		 M166.8,458.977c0-4.573-3.712-8.285-8.285-8.285h-8.837c-4.573,0-8.285,3.712-8.285,8.285s3.712,8.285,8.285,8.285h8.837
		C163.089,467.262,166.8,463.551,166.8,458.977z"/>
	<path style="fill:#FFFFFF;" d="M397.67,34.796v110.409l-28.975-28.964c-13.564-13.576-35.636-13.576-49.199,0l-63.771,63.76
		l-37.259-37.248c-13.564-13.576-35.636-13.576-49.199,0l-55.486,55.475V34.796c0-10.052,8.174-18.227,18.227-18.227h247.439
		C389.496,16.57,397.67,24.744,397.67,34.796z M378.891,43.633c0-4.573-3.712-8.285-8.285-8.285h-17.674
		c-4.573,0-8.285,3.712-8.285,8.285s3.712,8.285,8.285,8.285h17.674C375.179,51.918,378.891,48.206,378.891,43.633z M325.868,43.633
		c0-4.573-3.712-8.285-8.285-8.285h-17.674c-4.573,0-8.285,3.712-8.285,8.285s3.712,8.285,8.285,8.285h17.674
		C322.157,51.918,325.868,48.206,325.868,43.633z M299.357,114.33c0-4.573-3.712-8.285-8.285-8.285h-10.748
		c-2.596-7.655-8.66-13.72-16.316-16.316V78.982c0-4.573-3.712-8.285-8.285-8.285s-8.285,3.712-8.285,8.285V89.73
		c-7.655,2.596-13.72,8.66-16.316,16.316h-10.748c-4.573,0-8.285,3.712-8.285,8.285s3.712,8.285,8.285,8.285h10.748
		c2.596,7.655,8.66,13.72,16.316,16.316v10.748c0,4.573,3.712,8.285,8.285,8.285s8.285-3.712,8.285-8.285V138.93
		c7.655-2.596,13.72-8.66,16.316-16.316h10.748C295.645,122.615,299.357,118.903,299.357,114.33z M272.846,43.633
		c0-4.573-3.712-8.285-8.285-8.285h-17.674c-4.573,0-8.285,3.712-8.285,8.285s3.712,8.285,8.285,8.285h17.674
		C269.134,51.918,272.846,48.206,272.846,43.633z M219.823,43.633c0-4.573-3.712-8.285-8.285-8.285h-70.697
		c-4.573,0-8.285,3.712-8.285,8.285s3.712,8.285,8.285,8.285h70.697C216.111,51.918,219.823,48.206,219.823,43.633z"/>
</g>
<g>
	<path style="fill:#C2E95D;" d="M397.67,168.645v43.445H287.814l-20.368-20.37l63.76-63.771c7.113-7.103,18.679-7.103,25.782,0
		L397.67,168.645z"/>
	<rect x="325.868" y="299.357" style="fill:#C2E95D;" width="36.453" height="45.29"/>
	<rect x="237.497" y="299.357" style="fill:#C2E95D;" width="36.453" height="45.29"/>
	<rect x="149.126" y="299.357" style="fill:#C2E95D;" width="36.453" height="45.29"/>
	<path style="fill:#C2E95D;" d="M206.755,154.462l57.618,57.629H123.355l57.618-57.629
		C188.087,147.359,199.652,147.359,206.755,154.462z"/>
</g>
<g>
	<path style="fill:#535757;" d="M414.239,34.796v441.855c0,19.188-15.609,34.796-34.796,34.796H132.004
		c-19.188,0-34.796-15.609-34.796-34.796V34.796C97.208,15.609,112.817,0,132.004,0h247.439
		C398.631,0,414.239,15.609,414.239,34.796z M397.67,476.652V228.66H113.778v247.991c0,10.052,8.174,18.227,18.227,18.227h247.439
		C389.496,494.878,397.67,486.704,397.67,476.652z M397.67,212.091v-43.445l-40.684-40.695c-7.103-7.103-18.668-7.103-25.782,0
		l-63.76,63.771l20.368,20.37H397.67z M397.67,145.205V34.796c0-10.052-8.174-18.227-18.227-18.227H132.004
		c-10.052,0-18.227,8.174-18.227,18.227v163.431l55.486-55.475c13.564-13.576,35.636-13.576,49.199,0l37.259,37.248l63.771-63.76
		c13.564-13.576,35.636-13.576,49.199,0L397.67,145.205z M264.373,212.091l-57.618-57.629c-7.103-7.103-18.668-7.103-25.782,0
		l-57.618,57.629H264.373z"/>
	<path style="fill:#535757;" d="M378.891,291.072v61.86c0,4.573-3.712,8.285-8.285,8.285h-53.023c-4.573,0-8.285-3.712-8.285-8.285
		v-61.86c0-4.573,3.712-8.285,8.285-8.285h53.023C375.179,282.787,378.891,286.499,378.891,291.072z M362.321,344.647v-45.29
		h-36.453v45.29H362.321z"/>
	<path style="fill:#535757;" d="M370.606,35.348c4.573,0,8.285,3.712,8.285,8.285s-3.712,8.285-8.285,8.285h-17.674
		c-4.573,0-8.285-3.712-8.285-8.285s3.712-8.285,8.285-8.285H370.606z"/>
	<path style="fill:#535757;" d="M370.606,379.996c4.573,0,8.285,3.712,8.285,8.285s-3.712,8.285-8.285,8.285h-53.023
		c-4.573,0-8.285-3.712-8.285-8.285s3.712-8.285,8.285-8.285H370.606z"/>
	<path style="fill:#535757;" d="M361.769,415.344c4.573,0,8.285,3.712,8.285,8.285c0,4.573-3.712,8.285-8.285,8.285h-44.186
		c-4.573,0-8.285-3.712-8.285-8.285c0-4.573,3.712-8.285,8.285-8.285H361.769z"/>
	<path style="fill:#535757;" d="M361.769,450.693c4.573,0,8.285,3.712,8.285,8.285s-3.712,8.285-8.285,8.285h-44.186
		c-4.573,0-8.285-3.712-8.285-8.285s3.712-8.285,8.285-8.285H361.769z"/>
	<path style="fill:#535757;" d="M326.421,247.439c4.573,0,8.285,3.712,8.285,8.285s-3.712,8.285-8.285,8.285H185.027
		c-4.573,0-8.285-3.712-8.285-8.285s3.712-8.285,8.285-8.285H326.421z"/>
	<path style="fill:#535757;" d="M317.584,35.348c4.573,0,8.285,3.712,8.285,8.285s-3.712,8.285-8.285,8.285h-17.674
		c-4.573,0-8.285-3.712-8.285-8.285s3.712-8.285,8.285-8.285H317.584z"/>
	<path style="fill:#535757;" d="M291.072,106.045c4.573,0,8.285,3.712,8.285,8.285s-3.712,8.285-8.285,8.285h-10.748
		c-2.596,7.655-8.66,13.72-16.316,16.316v10.748c0,4.573-3.712,8.285-8.285,8.285s-8.285-3.712-8.285-8.285V138.93
		c-7.655-2.596-13.72-8.66-16.316-16.316h-10.748c-4.573,0-8.285-3.712-8.285-8.285s3.712-8.285,8.285-8.285h10.748
		c2.596-7.655,8.66-13.72,16.316-16.316V78.982c0-4.573,3.712-8.285,8.285-8.285s8.285,3.712,8.285,8.285V89.73
		c7.655,2.596,13.72,8.66,16.316,16.316H291.072z M265.113,114.33c0-5.181-4.209-9.389-9.389-9.389
		c-5.181,0-9.389,4.209-9.389,9.389s4.209,9.389,9.389,9.389C260.905,123.72,265.113,119.511,265.113,114.33z"/>
	<path style="fill:#535757;" d="M290.52,291.072v61.86c0,4.573-3.712,8.285-8.285,8.285h-53.023c-4.573,0-8.285-3.712-8.285-8.285
		v-61.86c0-4.573,3.712-8.285,8.285-8.285h53.023C286.808,282.787,290.52,286.499,290.52,291.072z M273.95,344.647v-45.29h-36.453
		v45.29H273.95z"/>
	<path style="fill:#535757;" d="M282.235,379.996c4.573,0,8.285,3.712,8.285,8.285s-3.712,8.285-8.285,8.285h-53.023
		c-4.573,0-8.285-3.712-8.285-8.285s3.712-8.285,8.285-8.285H282.235z"/>
	<path style="fill:#535757;" d="M282.235,415.344c4.573,0,8.285,3.712,8.285,8.285c0,4.573-3.712,8.285-8.285,8.285h-8.837
		c-4.573,0-8.285-3.712-8.285-8.285c0-4.573,3.712-8.285,8.285-8.285H282.235z"/>
	<path style="fill:#535757;" d="M282.235,450.693c4.573,0,8.285,3.712,8.285,8.285s-3.712,8.285-8.285,8.285h-8.837
		c-4.573,0-8.285-3.712-8.285-8.285s3.712-8.285,8.285-8.285H282.235z"/>
	<path style="fill:#535757;" d="M264.561,35.348c4.573,0,8.285,3.712,8.285,8.285s-3.712,8.285-8.285,8.285h-17.674
		c-4.573,0-8.285-3.712-8.285-8.285s3.712-8.285,8.285-8.285H264.561z"/>
	<path style="fill:#535757;" d="M238.05,415.344c4.573,0,8.285,3.712,8.285,8.285c0,4.573-3.712,8.285-8.285,8.285h-44.186
		c-4.573,0-8.285-3.712-8.285-8.285c0-4.573,3.712-8.285,8.285-8.285H238.05z"/>
	<path style="fill:#535757;" d="M238.05,450.693c4.573,0,8.285,3.712,8.285,8.285s-3.712,8.285-8.285,8.285h-44.186
		c-4.573,0-8.285-3.712-8.285-8.285s3.712-8.285,8.285-8.285H238.05z"/>
	<path style="fill:#535757;" d="M211.538,35.348c4.573,0,8.285,3.712,8.285,8.285s-3.712,8.285-8.285,8.285h-70.697
		c-4.573,0-8.285-3.712-8.285-8.285s3.712-8.285,8.285-8.285H211.538z"/>
	<path style="fill:#535757;" d="M202.149,291.072v61.86c0,4.573-3.712,8.285-8.285,8.285h-53.023c-4.573,0-8.285-3.712-8.285-8.285
		v-61.86c0-4.573,3.712-8.285,8.285-8.285h53.023C198.437,282.787,202.149,286.499,202.149,291.072z M185.579,344.647v-45.29
		h-36.453v45.29H185.579z"/>
	<path style="fill:#535757;" d="M193.864,379.996c4.573,0,8.285,3.712,8.285,8.285s-3.712,8.285-8.285,8.285h-53.023
		c-4.573,0-8.285-3.712-8.285-8.285s3.712-8.285,8.285-8.285H193.864z"/>
	<path style="fill:#535757;" d="M158.516,415.344c4.573,0,8.285,3.712,8.285,8.285c0,4.573-3.712,8.285-8.285,8.285h-8.837
		c-4.573,0-8.285-3.712-8.285-8.285c0-4.573,3.712-8.285,8.285-8.285H158.516z"/>
	<path style="fill:#535757;" d="M158.516,450.693c4.573,0,8.285,3.712,8.285,8.285s-3.712,8.285-8.285,8.285h-8.837
		c-4.573,0-8.285-3.712-8.285-8.285s3.712-8.285,8.285-8.285H158.516z"/>
</g>
<g>
</g>
<g>
</g>
<g>
</g>
<g>
</g>
<g>
</g>
<g>
</g>
<g>
</g>
<g>
</g>
<g>
</g>
<g>
</g>
<g>
</g>
<g>
</g>
<g>
</g>
<g>
</g>
<g>
</g>
</svg>
